# xmcd
#
# Track frame offsets:
#	150
#	10125
#	16962
#	27300
#	39587
#	50560
#	66362
#	83235
#	98500
#	112400
#	123125
#	133747
#	142062
#	156237
#	165475
#	176287
#	188472
#
# Disc length: 2742 seconds
#
# Revision: 0
# Processed by: cddbd v1.5.1PL0 Copyright (c) Steve Scherf et al.
# Submitted via: dBpowerAMP V4.0
#
DISCID=de0ab411
DTITLE=Face Value - Sing it Hot
DYEAR=1900
DGENRE=Acapella
TTITLE0=Sing it hot
TTITLE1=Mary Lou
TTITLE2=It had to be you
TTITLE3=Barbara Ann/Sitting on top of the world
TTITLE4=Lullaby of Birdland
TTITLE5=Candy
TTITLE6=It don't mean a thing
TTITLE7=Pink Panther/Fever/Canteloupe Island/Lulu's back in town
TTITLE8=Darktown strutter's ball/All of me
TTITLE9=She's my girl
TTITLE10=Java Jive
TTITLE11=Kansas City
TTITLE12=Don't worry baby
TTITLE13=Five foot two
TTITLE14=What'll I do
TTITLE15=Tuxedo Junction
TTITLE16=All alone
EXTD=
EXTT0=
EXTT1=
EXTT2=
EXTT3=
EXTT4=
EXTT5=
EXTT6=
EXTT7=
EXTT8=
EXTT9=
EXTT10=
EXTT11=
EXTT12=
EXTT13=
EXTT14=
EXTT15=
EXTT16=
PLAYORDER=
